<?xml version="1.0" encoding="UTF-8"?>
<svg width="200" height="50" viewBox="0 0 200 50" version="1.1" xmlns="http://www.w3.org/2000/svg">
    <!-- Calendar and Resource Icon -->
    <g transform="translate(10, 10)" fill="#3B82F6">
        <!-- Calendar Base -->
        <path d="M2,5 L28,5 C30,5 31,6 31,8 L31,32 C31,34 30,35 28,35 L2,35 C0,35 -1,34 -1,32 L-1,8 C-1,6 0,5 2,5 Z" 
              fill="#3B82F6"/>
        <!-- Calendar Top -->
        <path d="M2,0 L28,0 C30,0 31,1 31,3 L31,7 L-1,7 L-1,3 C-1,1 0,0 2,0 Z" 
              fill="#2563EB"/>
        <!-- Calendar Lines -->
        <path d="M4,12 L26,12 M4,19 L26,19 M4,26 L26,26" 
              stroke="#FFFFFF" 
              stroke-width="2" 
              fill="none"/>
        <!-- Resource Dots -->
        <circle cx="8" cy="15" r="2" fill="#FFFFFF"/>
        <circle cx="16" cy="22" r="2" fill="#FFFFFF"/>
        <circle cx="22" cy="29" r="2" fill="#FFFFFF"/>
    </g>
    <!-- Text -->
    <text x="70" y="32" font-family="Arial, sans-serif" font-size="24" font-weight="bold" fill="#2C3E50">
        BookWise
    </text>
</svg>
